<svg width="188" height="93" viewBox="0 0 188 93" fill="none" xmlns="http://www.w3.org/2000/svg">
<path d="M29.885 23.88V40.264H39.485C41.7037 40.264 43.197 39.7093 43.965 38.6C44.733 37.4053 45.117 35.9547 45.117 34.248V29.896C45.117 28.1893 44.733 26.7813 43.965 25.672C43.197 24.4773 41.7037 23.88 39.485 23.88H29.885ZM25.277 93H5.565C3.94367 93 2.749 92.6587 1.981 91.976C1.29833 91.208 0.957001 90.0133 0.957001 88.392V5.448C0.957001 3.82667 1.29833 2.67466 1.981 1.992C2.749 1.224 3.94367 0.839996 5.565 0.839996H48.189C57.7463 0.839996 64.317 2.84533 67.901 6.856C71.5703 10.7813 73.405 15.9013 73.405 22.216V28.104C73.405 31.688 72.8503 34.76 71.741 37.32C70.717 39.7947 68.8823 41.5867 66.237 42.696C70.845 43.208 74.557 45.0853 77.373 48.328C80.2743 51.5707 81.725 55.88 81.725 61.256V88.392C81.725 90.0133 81.341 91.208 80.573 91.976C79.8903 92.6587 78.7383 93 77.117 93H57.277C55.6557 93 54.461 92.6587 53.693 91.976C53.0103 91.208 52.669 90.0133 52.669 88.392V68.808C52.669 66.9307 52.285 65.5653 51.517 64.712C50.8343 63.7733 49.597 63.304 47.805 63.304H29.885V88.392C29.885 90.0133 29.501 91.208 28.733 91.976C28.0503 92.6587 26.8983 93 25.277 93Z" fill="black"/>
<path d="M119.762 93H100.69C99.0687 93 97.874 92.6587 97.106 91.976C96.4233 91.208 96.082 90.0133 96.082 88.392V5.448C96.082 3.82667 96.4233 2.67466 97.106 1.992C97.874 1.224 99.0687 0.839996 100.69 0.839996H121.298C122.663 0.839996 123.773 1.13866 124.626 1.73599C125.565 2.33333 126.418 3.31466 127.186 4.67999L138.706 25.544C139.133 26.312 139.474 26.8667 139.73 27.208C140.071 27.5493 140.498 27.72 141.01 27.72H142.162C142.674 27.72 143.058 27.5493 143.314 27.208C143.655 26.8667 144.039 26.312 144.466 25.544L155.858 4.67999C156.626 3.31466 157.437 2.33333 158.29 1.73599C159.229 1.13866 160.381 0.839996 161.746 0.839996H182.482C184.103 0.839996 185.255 1.224 185.938 1.992C186.706 2.67466 187.09 3.82667 187.09 5.448V88.392C187.09 90.0133 186.706 91.208 185.938 91.976C185.255 92.6587 184.103 93 182.482 93H162.77C161.149 93 159.954 92.6587 159.186 91.976C158.503 91.208 158.162 90.0133 158.162 88.392V43.336L150.61 57.288C149.842 58.7387 148.903 59.8053 147.794 60.488C146.77 61.0853 145.447 61.384 143.826 61.384H138.706C137.085 61.384 135.719 61.0853 134.61 60.488C133.586 59.8053 132.69 58.7387 131.922 57.288L124.37 43.336V88.392C124.37 90.0133 123.986 91.208 123.218 91.976C122.535 92.6587 121.383 93 119.762 93Z" fill="#FF6F00"/>
</svg>
